<mxfile host="app.diagrams.net" modified="2024-01-01T18:03:38.395Z" agent="Mozilla/5.0 (X11; Ubuntu; Linux x86_64; rv:121.0) Gecko/20100101 Firefox/121.0" version="22.1.16" etag="YAhoMgxyzbhR4Hjwjd0B" type="github">
  <diagram name="Page-1" id="HVqR4s3yR7tbc1BVHtMM">
    <mxGraphModel>
      <root>
        <mxCell id="0" />
        <mxCell id="1" parent="0" />
      </root>
    </mxGraphModel>
  </diagram>
</mxfile>
